<?xml version="1.0" encoding="utf-8"?>
<!-- Generator: Adobe Illustrator 26.5.0, SVG Export Plug-In . SVG Version: 6.00 Build 0)  -->
<svg version="1.1" xmlns="http://www.w3.org/2000/svg" xmlns:xlink="http://www.w3.org/1999/xlink" x="0px" y="0px"
	 viewBox="0 0 359.5 67.1" style="enable-background:new 0 0 359.5 67.1;" xml:space="preserve">
<style type="text/css">
	.st0{fill:#E30613;}
	.st1{fill:#164196;}
</style>
<g id="Claim">
	<g>
		<polyline points="90.1,55.5 98.4,55.5 98.4,57.5 95.4,57.5 95.4,67 93.2,67 93.2,57.5 90.1,57.5 		"/>
		<path d="M109.7,67h-2.3v-4.8h-3.9V67h-2.3V55.5h2.3v4.7h3.9v-4.7h2.3V67z"/>
		<path d="M120.5,57.5h-5.4v2.7h4.6v2h-4.6V65h5.4v2h-7.6V55.5h7.6V57.5z"/>
		<path d="M140.7,67h-2.3v-4.8h-3.9V67h-2.3V55.5h2.3v4.7h3.9v-4.7h2.3V67z"/>
		<path d="M152.3,57.5H147v2.7h4.6v2H147V65h5.4v2h-7.6V55.5h7.6V57.5z"/>
		<path d="M165.4,67h-2.4l-0.7-2h-4.1l-0.7,2h-2.4l4.2-11.6h1.8L165.4,67z M158.9,63.1h2.8l-1.4-4.2L158.9,63.1z"/>
		<path d="M172.9,55.5c0.6,0,1.1,0.1,1.6,0.3c0.5,0.2,0.9,0.4,1.2,0.8c0.3,0.3,0.6,0.7,0.7,1.1c0.2,0.4,0.3,0.9,0.3,1.4
			c0,0.4-0.1,0.8-0.2,1.1c-0.1,0.3-0.3,0.6-0.5,0.9c-0.2,0.2-0.4,0.5-0.7,0.6c-0.3,0.2-0.5,0.3-0.8,0.4l2.6,5h-2.6l-2.3-4.6h-1.6V67
			h-2.3V55.5H172.9z M170.6,57.5v3h2.1c0.5,0,0.9-0.1,1.2-0.4c0.3-0.3,0.4-0.6,0.4-1.1c0-0.5-0.1-0.8-0.4-1.1
			c-0.3-0.3-0.7-0.4-1.2-0.4H170.6z"/>
		<path d="M187.8,57.5h-3V67h-2.3v-9.6h-3v-2h8.3V57.5z"/>
		<path d="M200.8,55.3c0.7,0,1.3,0.1,1.8,0.3c0.5,0.2,0.9,0.5,1.3,0.9c0.3,0.3,0.5,0.6,0.7,0.9c0.2,0.3,0.3,0.7,0.3,1
			s0.1,0.8,0.1,1.2c0,0.4,0,1,0,1.5c0,0.6,0,1.1,0,1.5c0,0.4-0.1,0.9-0.1,1.2c-0.1,0.4-0.2,0.7-0.3,1c-0.2,0.3-0.4,0.6-0.7,0.9
			c-0.4,0.4-0.9,0.7-1.3,0.9c-0.5,0.2-1.1,0.3-1.8,0.3c-0.7,0-1.3-0.1-1.8-0.3c-0.5-0.2-0.9-0.5-1.3-0.9c-0.3-0.3-0.5-0.6-0.7-0.9
			c-0.2-0.3-0.3-0.7-0.3-1c-0.1-0.4-0.1-0.8-0.1-1.2c0-0.4,0-0.9,0-1.5c0-0.6,0-1,0-1.5c0-0.4,0.1-0.9,0.1-1.2
			c0.1-0.4,0.2-0.7,0.3-1c0.2-0.3,0.4-0.6,0.7-0.9c0.4-0.4,0.8-0.7,1.3-0.9C199.6,55.4,200.2,55.3,200.8,55.3z M200.8,57.4
			c-0.3,0-0.6,0.1-0.8,0.2c-0.2,0.1-0.4,0.3-0.6,0.4c-0.1,0.1-0.2,0.3-0.3,0.4c-0.1,0.1-0.1,0.3-0.2,0.6c0,0.2-0.1,0.5-0.1,0.9
			c0,0.4,0,0.8,0,1.4c0,0.6,0,1,0,1.4c0,0.4,0,0.7,0.1,0.9c0,0.2,0.1,0.4,0.2,0.6c0.1,0.1,0.2,0.3,0.3,0.4c0.2,0.2,0.4,0.3,0.6,0.5
			c0.2,0.1,0.5,0.2,0.8,0.2c0.3,0,0.6-0.1,0.8-0.2c0.2-0.1,0.4-0.3,0.6-0.5c0.1-0.1,0.2-0.3,0.3-0.4c0.1-0.1,0.1-0.3,0.2-0.6
			c0-0.2,0.1-0.5,0.1-0.9c0-0.4,0-0.8,0-1.4c0-0.6,0-1,0-1.4c0-0.4,0-0.7-0.1-0.9c0-0.2-0.1-0.4-0.2-0.6c-0.1-0.1-0.2-0.3-0.3-0.4
			c-0.2-0.2-0.4-0.3-0.6-0.4C201.4,57.4,201.1,57.4,200.8,57.4z"/>
		<path d="M216.3,57.5H211v2.8h4.6v2H211V67h-2.3V55.4h7.6V57.5z"/>
		<path d="M229.2,55.4c0.8,0,1.5,0.1,2.1,0.3c0.6,0.2,1.1,0.6,1.6,1l-1.4,1.4c-0.3-0.3-0.7-0.5-1-0.6c-0.4-0.1-0.8-0.2-1.3-0.2
			c-0.6,0-1.1,0.1-1.3,0.4c-0.3,0.3-0.4,0.6-0.4,1c0,0.3,0.1,0.6,0.3,0.8c0.1,0.1,0.3,0.2,0.4,0.3c0.2,0.1,0.4,0.1,0.6,0.2l1.4,0.2
			c0.5,0.1,1,0.2,1.3,0.3c0.3,0.1,0.6,0.3,0.9,0.6c0.3,0.3,0.5,0.6,0.7,1c0.1,0.4,0.2,0.9,0.2,1.4c0,0.6-0.1,1.1-0.3,1.5
			c-0.2,0.4-0.5,0.8-0.9,1.1c-0.4,0.3-0.8,0.5-1.4,0.7c-0.5,0.2-1.1,0.2-1.7,0.2c-0.9,0-1.7-0.1-2.3-0.3c-0.7-0.2-1.3-0.6-1.9-1.2
			l1.5-1.5c0.4,0.4,0.8,0.6,1.3,0.8c0.5,0.1,1,0.2,1.5,0.2c0.7,0,1.2-0.1,1.5-0.4c0.3-0.2,0.5-0.6,0.5-1.1c0-0.4-0.1-0.7-0.4-1
			c-0.1-0.1-0.3-0.2-0.4-0.2c-0.1-0.1-0.4-0.1-0.6-0.1l-1.4-0.2c-1-0.2-1.7-0.5-2.2-1c-0.6-0.5-0.8-1.3-0.8-2.3c0-0.5,0.1-1,0.3-1.4
			c0.2-0.4,0.4-0.8,0.8-1.1c0.3-0.3,0.8-0.5,1.3-0.7C228,55.5,228.6,55.4,229.2,55.4z"/>
		<path d="M241.3,55.4c0.6,0,1.1,0.1,1.6,0.3c0.5,0.2,0.9,0.4,1.2,0.8c0.3,0.3,0.6,0.7,0.7,1.2c0.2,0.4,0.3,0.9,0.3,1.4
			c0,0.5-0.1,1-0.3,1.4c-0.2,0.4-0.4,0.8-0.7,1.2c-0.3,0.3-0.7,0.6-1.2,0.8c-0.5,0.2-1,0.3-1.6,0.3h-2.2V67h-2.3V55.4H241.3z
			 M239.1,57.4v3.2h2.1c0.5,0,0.9-0.1,1.2-0.4c0.3-0.3,0.4-0.7,0.4-1.2c0-0.5-0.1-0.9-0.4-1.2c-0.3-0.3-0.7-0.4-1.2-0.4H239.1z"/>
		<path d="M252.6,55.3c0.7,0,1.3,0.1,1.8,0.3c0.5,0.2,0.9,0.5,1.3,0.9c0.3,0.3,0.5,0.6,0.7,0.9c0.2,0.3,0.3,0.7,0.3,1
			s0.1,0.8,0.1,1.2c0,0.4,0,1,0,1.5c0,0.6,0,1.1,0,1.5c0,0.4-0.1,0.9-0.1,1.2c-0.1,0.4-0.2,0.7-0.3,1c-0.2,0.3-0.4,0.6-0.7,0.9
			c-0.4,0.4-0.9,0.7-1.3,0.9c-0.5,0.2-1.1,0.3-1.8,0.3c-0.7,0-1.3-0.1-1.8-0.3c-0.5-0.2-0.9-0.5-1.3-0.9c-0.3-0.3-0.5-0.6-0.7-0.9
			c-0.2-0.3-0.3-0.7-0.3-1c-0.1-0.4-0.1-0.8-0.1-1.2c0-0.4,0-0.9,0-1.5c0-0.6,0-1,0-1.5c0-0.4,0.1-0.9,0.1-1.2
			c0.1-0.4,0.2-0.7,0.3-1c0.2-0.3,0.4-0.6,0.7-0.9c0.4-0.4,0.8-0.7,1.3-0.9C251.3,55.4,251.9,55.3,252.6,55.3z M252.6,57.4
			c-0.3,0-0.6,0.1-0.8,0.2c-0.2,0.1-0.4,0.3-0.6,0.4c-0.1,0.1-0.2,0.3-0.3,0.4c-0.1,0.1-0.1,0.3-0.2,0.6c0,0.2-0.1,0.5-0.1,0.9
			c0,0.4,0,0.8,0,1.4c0,0.6,0,1,0,1.4c0,0.4,0,0.7,0.1,0.9s0.1,0.4,0.2,0.6c0.1,0.1,0.2,0.3,0.3,0.4c0.2,0.2,0.4,0.3,0.6,0.5
			c0.2,0.1,0.5,0.2,0.8,0.2c0.3,0,0.6-0.1,0.8-0.2c0.2-0.1,0.4-0.3,0.6-0.5c0.1-0.1,0.2-0.3,0.3-0.4c0.1-0.1,0.1-0.3,0.2-0.6
			c0-0.2,0.1-0.5,0.1-0.9c0-0.4,0-0.8,0-1.4c0-0.6,0-1,0-1.4c0-0.4,0-0.7-0.1-0.9c0-0.2-0.1-0.4-0.2-0.6c-0.1-0.1-0.2-0.3-0.3-0.4
			c-0.2-0.2-0.4-0.3-0.6-0.4C253.2,57.4,252.9,57.4,252.6,57.4z"/>
		<path d="M265.2,55.4c0.6,0,1.1,0.1,1.6,0.3c0.5,0.2,0.9,0.4,1.2,0.8c0.3,0.3,0.6,0.7,0.7,1.1c0.2,0.4,0.3,0.9,0.3,1.4
			c0,0.4-0.1,0.8-0.2,1.1c-0.1,0.3-0.3,0.6-0.5,0.9c-0.2,0.2-0.4,0.5-0.7,0.6c-0.3,0.2-0.5,0.3-0.8,0.4l2.6,5h-2.6l-2.3-4.6H263V67
			h-2.3V55.4H265.2z M263,57.4v3h2.1c0.5,0,0.9-0.1,1.2-0.4s0.4-0.6,0.4-1.1c0-0.5-0.1-0.8-0.4-1.1c-0.3-0.3-0.7-0.4-1.2-0.4H263z"
			/>
		<path d="M280.4,57.5h-3V67h-2.3v-9.6h-3v-2h8.3V57.5z"/>
	</g>
</g>
<g id="Banner_Mark">
	<g>
		<g>
			<path class="st0" d="M51.9,4.3c0-2.5,1.6-4.1,4.1-4.1c2.5,0,4.1,1.7,4.1,4.1v29.4c0,2.5-1.6,4.1-4.1,4.1c-2.5,0-4.1-1.7-4.1-4.1
				V4.3L51.9,4.3z"/>
			<path class="st0" d="M67.2,5.1c0-3.4,1.7-4.9,5.2-4.9c1.7,0,3.2,0.7,4.1,2.2L91,25.8h0.1V4.2c0-2.7,1.5-4,4-4c2.5,0,4,1.3,4,4
				v28.6c0,3.3-1.4,5.2-4.9,5.2c-2.6,0-3.5-0.6-4.6-2.2L75.3,12.9h-0.1v21c0,2.7-1.5,4-4,4c-2.5,0-4-1.3-4-4V5.1L67.2,5.1z"/>
			<path class="st0" d="M112.3,7.8h-5.9c-2.4,0-4.3-1.2-4.3-3.5c0-2.3,1.9-3.5,4.3-3.5h20.1c2.4,0,4.3,1.2,4.3,3.5
				c0,2.3-1.9,3.5-4.3,3.5h-5.9v25.9c0,2.5-1.6,4.1-4.1,4.1s-4.1-1.7-4.1-4.1V7.8L112.3,7.8z"/>
			<path class="st0" d="M133.8,5.7c0-3.7,1.9-4.9,4.9-4.9h18.2c2.4,0,4.2,0.7,4.2,3.3s-1.8,3.3-4.2,3.3h-14.7v7.9h12.8
				c2.2,0,3.9,0.6,3.9,3.2c0,2.6-1.7,3.2-3.9,3.2h-12.8v8.8h15.1c2.4,0,4.2,0.7,4.2,3.3c0,2.6-1.8,3.3-4.2,3.3h-18.6
				c-2.9,0-4.9-1.2-4.9-4.9V5.7L133.8,5.7z"/>
			<path class="st0" d="M173.4,17h7c3.1,0,6.3-0.8,6.3-4.9c0-3.9-2.4-4.9-6-4.9h-7.3V17L173.4,17z M165.1,5.7c0-3.7,1.9-4.9,4.9-4.9
				h12.5c9.9,0,12.5,5.4,12.5,10.1c0,3.9-2.3,7.8-6.3,8.7v0.1c4.2,0.6,5,3.7,5,7.4c0,4.2,1.1,5.8,1.1,7.5c0,1.9-2,3.2-3.9,3.2
				c-4.6,0-4.9-4.4-4.9-5.9c0-6.4-1.2-8.9-5.7-8.9h-6.9v10.7c0,2.5-1.6,4.1-4.1,4.1c-2.5,0-4.1-1.7-4.1-4.1V5.7L165.1,5.7z"/>
		</g>
		<g>
			<path class="st1" d="M308.4,17h7c3.1,0,6.3-0.8,6.3-4.9c0-3.9-2.4-4.9-6-4.9h-7.3V17L308.4,17z M300.1,5.7c0-3.7,1.9-4.9,4.9-4.9
				h12.5c9.9,0,12.5,5.4,12.5,10.1c0,3.9-2.3,7.8-6.3,8.7v0.1c4.2,0.6,5,3.7,5,7.4c0,4.2,1.1,5.8,1.1,7.5c0,1.9-2,3.2-3.9,3.2
				c-4.6,0-4.9-4.4-4.9-5.9c0-6.4-1.2-8.9-5.7-8.9h-6.9v10.7c0,2.5-1.6,4.1-4.1,4.1c-2.5,0-4.1-1.7-4.1-4.1V5.7L300.1,5.7z"/>
			<path class="st1" d="M219.5,16.2c7.6,1.7,9.5,6.2,9.5,10.5c0,6.6-5,11.5-15,11.5c-10.5,0-15.2-5.3-15.2-9.2c0-2,1.5-3.4,3.5-3.4
				c4.5,0,3.3,6.6,11.7,6.6c4.3,0,6.7-2.4,6.7-4.8c0-1.5-0.7-3.1-3.5-3.8l-9.4-2.4c-7.5-1.9-8.9-6.1-8.9-10C199,3,206.4,0,213.5,0
				c6.5,0,14.1,3.6,14.1,8.5c0,2.1-1.8,3.3-3.8,3.3c-3.8,0-3.1-5.4-10.9-5.4c-3.8,0-6,1.8-6,4.3s3,3.3,5.7,3.9L219.5,16.2
				L219.5,16.2z"/>
			<path class="st1" d="M241,17.5h6.5c3.3,0,5.8-2,5.8-5.2c0-3.6-2.6-5.2-6.7-5.2H241V17.5L241,17.5z M232.7,5.7
				c0-3.7,1.9-4.9,4.9-4.9h11.4c7,0,12.6,3.4,12.6,11.5c0,6.6-4.6,11.5-12.6,11.5H241v9.9c0,2.5-1.6,4.1-4.1,4.1
				c-2.5,0-4.1-1.7-4.1-4.1V5.7L232.7,5.7z"/>
			<path class="st1" d="M279.7,31.4c7.5,0,7.5-5.9,7.5-12.8c0-7-0.8-11.9-7.5-11.9c-6.8,0-7.5,5-7.5,11.9
				C272.2,25.6,272,31.4,279.7,31.4 M279.7,0c11.9,0,15.8,7.9,15.8,18.6c0,10.3-3.4,19.5-15.8,19.5c-13,0-15.8-8.5-15.8-19.5
				C263.9,7.9,267.8,0,279.7,0"/>
			<path class="st1" d="M341,7.8h-5.9c-2.4,0-4.3-1.2-4.3-3.5c0-2.3,1.9-3.5,4.3-3.5h20.1c2.4,0,4.3,1.2,4.3,3.5
				c0,2.3-1.9,3.5-4.3,3.5h-5.9v25.9c0,2.5-1.6,4.1-4.1,4.1s-4.1-1.7-4.1-4.1V7.8L341,7.8z"/>
		</g>
		<g>
			<path class="st0" d="M0,8.6c0-4.5,3.7-8.2,8.2-8.2c4.5,0,8.2,3.6,8.2,8.2c0,4.5-3.6,8.2-8.2,8.2C3.7,16.8,0,13.1,0,8.6"/>
			<path class="st1" d="M8.2,37.6c-1.1,0-2-1-2-2.2V22c0-1.2,0.9-2.2,2-2.2C21,19.8,22,2.5,40.4,2.5c1.1,0,2,1,2,2.2v13.2
				c0,1.2-0.9,2.2-2,2.2C27.9,20.1,27.1,37.6,8.2,37.6"/>
		</g>
	</g>
</g>
</svg>
